<?xml version="1.0" encoding="utf-8"?>
<!-- Generator: Adobe Illustrator 24.3.0, SVG Export Plug-In . SVG Version: 6.00 Build 0)  -->
<svg version="1.1" id="Layer_1" xmlns="http://www.w3.org/2000/svg" xmlns:xlink="http://www.w3.org/1999/xlink" x="0px" y="0px"
	 viewBox="0 0 512 512" style="enable-background:new 0 0 512 512;" xml:space="preserve">
<style type="text/css">
	.st0{fill:none;stroke:#BDBDC1;stroke-width:32;stroke-miterlimit:10;}
</style>
<circle class="st0" cx="248" cy="56" r="40"/>
<path class="st0" d="M199.3,295.6L199.3,295.6l-30.4,172.2c-2.3,13.1,6.4,25.5,19.5,27.8c0,0,0,0,0,0c12.9,2.3,25.3-6.3,27.6-19.2
	c0-0.1,0-0.2,0-0.3l21-119.9v0.2c0,0,5.2-32.5,17.5-32.5h3.1c12.5,0,17.5,32.5,17.5,32.5v-0.1l21,119.9c2.3,13,14.7,21.7,27.8,19.4
	s21.7-14.7,19.4-27.8l-30.4-172.2l-4.9-29.7c-2.9-18.1-4.2-47.6,0.5-59.7c4-10.4,14.1-14.2,23.2-14.2H424c13.3,0,24-10.7,24-24
	s-10.7-24-24-24H88c-13.3,0-24,10.7-24,24s10.7,24,24,24h92.5c9.2,0,19.2,3.8,23.2,14.2c4.7,12.1,3.4,41.6,0.5,59.7L199.3,295.6z"/>
</svg>
