<?xml version="1.0" encoding="utf-8"?>
<!-- Generator: Adobe Illustrator 24.3.0, SVG Export Plug-In . SVG Version: 6.00 Build 0)  -->
<svg version="1.1" id="Layer_1" xmlns="http://www.w3.org/2000/svg" xmlns:xlink="http://www.w3.org/1999/xlink" x="0px" y="0px"
	 viewBox="0 0 457.6 163" style="enable-background:new 0 0 457.6 163;" xml:space="preserve">
<style type="text/css">
	.st0{fill:#393939;}
	.st1{fill:#545050;}
</style>
<g id="crack_and_code">
	<g>
		<path class="st0" d="M398.8,29.8c0.8-5,1.6-10.5,2.5-16.4c2.9,0,5.8,0,9,0c-2.4,16.5-4.8,32.8-7.2,49.4c-2.9,0-5.7,0-8.7,0
			c-0.1-0.9-0.2-1.7-0.3-2.7c-0.4,0.1-0.7,0.2-1,0.3c-2,1.1-4,2.6-6.1,3.1c-7.4,1.8-13.4-3.5-14-12.4c-0.9-12.7,6.1-24.4,16.7-24.2
			C392.6,27.1,395.5,28.8,398.8,29.8z M396.8,43.4c0-4.5-2.6-7.7-6.2-7.7c-4.4,0.1-8.4,5.5-8.4,11.7c0,4.5,2.4,7.6,5.8,7.6
			C392.8,55,396.8,49.6,396.8,43.4z"/>
		<path class="st0" d="M264.5,13.4c3,0,5.7,0,9,0c-1.3,8.8-2.5,17.4-3.7,25.9c0.2,0.1,0.3,0.2,0.5,0.3c3-4,6-7.9,8.9-11.8
			c3.4,0,6.5,0,9.7,0c0.2,0.3,0.4,0.6,0.6,0.9c-4,5-8,10-12.3,15.5c1.5,3.3,3.1,6.7,4.6,10c2-0.5,3.2-0.8,4.9-1.2
			c0.7,2.2,1.5,4.5,2.2,6.7c-5.3,6.8-13.7,5.5-16.9-2.4c-1-2.5-2-5.1-3.6-7.6c-0.7,4.4-1.4,8.8-2.1,13.4c-2.9,0-5.6,0-9,0
			C259.7,46.3,262.1,29.9,264.5,13.4z"/>
		<path class="st0" d="M214.7,29.7c0,0,0.3-0.9,0.7-2c2.7,0,5.4,0,8.8,0c-1.7,11.8-3.4,23.3-5.1,35.1c-2.9,0-5.6,0-8.6,0
			c-0.1-0.8-0.3-1.7-0.4-2.7c-0.4,0.1-0.7,0.2-1,0.4c-1,0.7-1.9,1.5-2.9,2c-9.3,4.9-18.3-2.9-17.2-15c1-12.3,7.4-20.5,16.4-20.5
			C208.3,27.1,211.4,28.7,214.7,29.7z M212.7,43.4c0-4.5-2.6-7.7-6.2-7.7c-4.4,0.1-8.4,5.5-8.4,11.6c0,4.5,2.4,7.6,5.8,7.6
			C208.7,55,212.8,49.6,212.7,43.4z"/>
		<path class="st0" d="M442.3,48c-7.7,0-15.3,0-22.9,0c0.9,7.9,7.2,9,16.1,2.8c1.4,1.8,2.8,3.7,4.2,5.6c-5.3,7.5-16.7,9.6-23.7,5
			c-5.2-3.5-7.1-11.3-4.8-19.4c3.1-10.7,13.1-17.3,22.3-14.8C440.7,29.3,444.4,37.7,442.3,48z M434.3,41.1c-0.9-4-3.1-5.1-5.9-5.2
			c-3.6-0.2-6.1,1.8-7,5.2C425.6,41.1,429.7,41.1,434.3,41.1z"/>
		<path class="st0" d="M356.3,26.9c10,0,15.8,9.3,13,20.9c-2.8,11.6-13.9,18.7-23.5,15.3c-7.1-2.6-10.5-11.2-8.1-20.6
			C340,33.3,347.7,26.9,356.3,26.9z M361.1,43.8c0-3.9-2.9-7.5-6.2-7.5c-4.4-0.1-9.3,5.7-9.3,10.9c0.1,3.9,3,7.3,6.3,7.3
			C356.3,54.4,361.1,48.9,361.1,43.8z"/>
		<path class="st0" d="M250.8,50.5c1,2.8,1.9,5.2,2.9,7.8c-5.7,5.1-11.8,6.8-18.5,4.6c-7.2-2.4-10.4-11-7.9-20.7
			c3.9-14.9,19.9-20.3,30.3-9.8c-1.7,2.5-3.3,5-5.1,7.7c-3-2.5-6.1-4.4-9.6-3c-1.8,0.8-3.7,2-5,3.5c-2.4,2.8-2.8,6.5-1.5,9.4
			c1.3,2.9,4.5,4.5,7.8,3.8c1.1-0.3,2.2-0.7,3.2-1.2C248.4,52.1,249.3,51.4,250.8,50.5z"/>
		<path class="st0" d="M165.8,32.4c-1.9,2.8-3.5,5.2-5.2,7.7c-3-2.7-6.1-4.3-9.6-3c-1.5,0.6-3.1,1.4-4.2,2.6
			c-2.8,2.8-3.6,7.3-2.2,10.4c1.5,3.2,4.9,4.7,8.5,3.5c1.9-0.6,3.7-1.7,5.9-2.8c0.9,2.4,1.8,4.9,2.8,7.5c-5.8,5.1-11.9,6.8-18.6,4.6
			c-6.5-2.2-9.5-8.7-8.3-17.6c1.1-8.5,5.3-14.2,11.9-16.9C153.4,25.7,159.9,26,165.8,32.4z"/>
		<path class="st0" d="M330.2,50.5c1.1,2.8,2,5.2,3,7.8c-5.9,5.1-12.1,7-18.9,4.4c-7-2.6-9.8-10.4-7.7-20c3.4-15,20.2-21,30.3-10.3
			c-1.6,2.5-3.2,5-5,7.7c-3.1-2.6-6-4.1-9.6-3.1c-3.6,1.1-6.5,4.5-7.2,8.7c-0.5,3.4,1.3,6.6,4.4,7.8C323.3,55,326.5,53,330.2,50.5z"
			/>
		<path class="st0" d="M170.8,27.8c1-0.2,1.7-0.3,2.3-0.3c2,0,4,0,6.2,0c0.2,1.2,0.3,2.3,0.5,3.9c2.9-3.2,5.9-5.5,10.1-3.9
			c-0.5,3.3-0.9,6.5-1.4,9.9c-1.1-0.1-2.1-0.2-3-0.2c-4.3,0-7.1,2.5-8,7.6c-1,5.8-1.8,11.7-2.7,17.9c-2.8,0-5.6,0-9,0
			C167.4,51.2,169.1,39.7,170.8,27.8z"/>
	</g>
</g>
<g id="Layer_1_1_">
	<g id="EjBSXR.tif">
		<g>
			<path class="st1" d="M147.8,69.5c-8.1-0.1-15.6-0.2-23.1-0.2c-3.1-11-10.7-16.9-22.4-17.4C91,51.4,82.7,57.1,78.5,68.7
				c-0.3-0.4-0.6-0.7-0.7-1c-2-10.7-13.1-16.8-23.9-16.3c-7.5,0.3-14.2,3-18.8,9.3c-0.8,1.1-1.8,2.4-1.9,3.7c-0.5,3.8-2.7,4.1-5.9,4
				c-6-0.3-12-0.2-18.5-0.2c3.7-8.1,8.2-15,14-20.9c5.8-5.8,12.2-11,18.3-16.5C35.3,26.5,27.9,23,25.1,14c5.7,3.1,10.7,5.7,15.6,8.3
				c0.2-0.3,0.5-0.5,0.7-0.8c-3.2-5.1-7-9.9-8.5-16.7c7,5.3,12.9,10.7,21,13.7c-2.2-4.6-4.1-8.6-6.3-13.4c1.3,0.3,1.6,0.3,1.8,0.4
				c8,9.3,18.4,12.7,30.4,14.4c29.8,4.1,53,18.4,66.6,46.1C146.8,67,147.1,68,147.8,69.5z"/>
			<path class="st1" d="M19.1,73.9c1.2,0,2.5,0,3.7,0c3.7,0.3,7.1-0.5,10.6-2.1c9.2-4.3,18.4-3.5,27.2,1.6c0.3,0.2,0.7,0.4,1,0.6
				c6.2,6,13.9,7.2,22,6.3c1.2-0.1,2.4-0.5,3.4-1.1c2-1.2,3.9-2.5,5.9-3.8c10.3-6.9,20.8-7.4,31.8-1.9c1.7,0.9,3.8,1.4,5.7,1.5
				c5.1,0.2,10.2,0.2,15.3,0.2c2,0,3.9,0.5,4.4,2.4c0.4,1.6-0.2,3.4-0.4,5.2c0,0.1-0.1,0.2-0.2,0.2c-4.6,3-4.1,7.9-4.9,12.4
				c-1.7,9.2-4.4,18-11.3,24.9c-8.9,8.8-22.9,11.4-34.6,6.5c-11.3-4.7-18.2-15.4-18.1-28.3c0-2-0.5-3.8-2.5-3.7
				c-2.4,0.1-3,2.1-3.1,4.4c-0.4,16.9-13.3,29.3-30.2,29.2c-13.8-0.1-24.7-7.2-29.5-20.1c-2.3-6.3-3.2-13.2-4.5-19.8
				c-0.3-1.8-0.4-3.5-2.1-4.7c-1.1-0.8-2-2.1-2.6-3.4c-1.6-3.3,0.5-6.5,4.1-6.5C13.2,73.8,16.2,73.8,19.1,73.9z M22,98.5
				c-0.1,12.9,10.1,23.5,23,23.6C58,122.4,68.7,112,68.8,99c0.1-12.9-10.1-23.4-23.1-23.5C32.5,75.3,22.2,85.4,22,98.5z M86.9,99.2
				c-0.1,13.1,10.1,23.5,23.2,23.7c12.8,0.1,23.4-10.2,23.6-23.1c0.1-13-10.2-23.5-23.3-23.6C97.5,76.1,87,86.3,86.9,99.2z"/>
			<path class="st1" d="M52.5,89.4c-3.3,6.9,0.5,12.1,7.9,11.7c-0.9,5-5.6,8.3-10.7,7.3c-5.2-0.9-8.8-5.7-8-10.9
				C42.6,92,46.9,88.7,52.5,89.4z"/>
			<path class="st1" d="M95.1,101.5c8.2,0.4,11.1-5.5,8.1-11.6c5.5-0.6,10.2,3,10.7,8.3c0.5,5.4-3.2,10.2-8.5,10.8
				C100.4,109.8,95.8,106.4,95.1,101.5z"/>
		</g>
	</g>
</g>
<g id="javascript_1_">
</g>
</svg>
