<svg id="Layer_1" data-name="Layer 1" xmlns="http://www.w3.org/2000/svg" viewBox="0 0 390.38 99.79"><g id="javascript"><path d="M278.88,92.73c-.53,3.08-1.19,6-1.6,9-.24,1.42-.71,2.07-2.25,2-2.14-.12-4.27-.06-6.82-.06,1.84-10.44,3.68-20.63,5.45-30.88h8.42c.06.53.12,1,.18,1.48a33.44,33.44,0,0,1,4.09-1.66c5.63-1.36,10.31,2.25,10.49,8a13.66,13.66,0,0,1-5.57,12C287.36,95.58,283.15,95.63,278.88,92.73Zm1.42-8.12c0,2.08,1.25,3.62,3,3.62,2.43.06,4.69-2.73,4.63-5.75,0-2.14-1.31-3.56-3.14-3.5C282.5,79,280.3,81.77,280.3,84.61Z" transform="translate(-5.31 -3.91)" style="fill:#8a8a8a"/><path d="M216.29,72.88c-1.78.53-3.61,1.06-5.45,1.54-.47.12-1,.17-1.42.29-1.43-2.55-2.73-3.26-4.51-2.37a2.69,2.69,0,0,0-1.3,1.6c-.06.42.59,1.19,1.13,1.43,1.48.71,3,1.18,4.5,1.83,3.2,1.31,6.1,3.08,6.1,7.06a9.28,9.28,0,0,1-5.69,9,17,17,0,0,1-12.32,1.07c-4.15-1.18-6.23-4.27-5.69-8.59,2.25-.48,4.5-1,6.75-1.54,1.78,3.49,3.62,4.62,6.29,3.61a2.89,2.89,0,0,0,1.77-1.66c.06-.53-.83-1.48-1.48-1.84a44.88,44.88,0,0,0-4.68-1.89c-6.28-2.49-7.59-8.3-3-13.28,3.32-3.55,9.84-5,14.4-3.2A7.15,7.15,0,0,1,216.29,72.88Z" transform="translate(-5.31 -3.91)" style="fill:#8a8a8a"/><path d="M128.75,74.48c.24-.72.48-1.19.66-1.72h8.53c-1.24,7.23-2.49,14.34-3.73,21.57h-8.42c-.06-.41-.18-1-.24-1.24a34.2,34.2,0,0,1-5.45,1.72c-5.1.59-8.95-2.91-9.13-8-.29-6.93,3.86-12.8,10-14.22A7.92,7.92,0,0,1,128.75,74.48Zm-1.24,8.06c0-2.14-1.25-3.56-3.08-3.56-2.43,0-4.69,2.85-4.63,5.81.06,1.95,1.25,3.38,3,3.44C125.14,88.29,127.51,85.5,127.51,82.54Z" transform="translate(-5.31 -3.91)" style="fill:#8a8a8a"/><path d="M191.16,72.94c-1.24,7.11-2.49,14.22-3.73,21.45H179c-.06-.53-.12-1.07-.18-1.66-.17.06-.35.06-.41.12-3.32,2.49-6.88,2.84-10.37.77s-4.09-5.39-3.74-9.07c.48-5.69,4.33-10.55,9.43-11.91,3.38-.89,5.57-.42,8.24,1.84.23-.6.53-1.19.77-1.78h7.64A3.29,3.29,0,0,1,191.16,72.94Zm-13.1,6c-3-.06-5.63,3.68-5,6.58A3.08,3.08,0,0,0,178,87.63a5.91,5.91,0,0,0,2.78-5.45A3.08,3.08,0,0,0,178.06,79Z" transform="translate(-5.31 -3.91)" style="fill:#8a8a8a"/><path d="M111.92,65.59c-1.54,7.23-2.49,14.22-4.56,20.86-2.31,7.41-11.5,10.67-18.55,7.41C85,92,83.41,87.57,85.13,83c1.42-3.67,2.08-4.15,6-4.15H95.5c-.71,1.48-1.36,2.67-1.89,3.91C93,84.43,92.9,86,94.67,87c1.31.71,3.44-.18,4.15-2a26,26,0,0,0,1.48-5.34c.83-4.21,1.49-8.42,2.32-12.62.11-.6.88-1.43,1.36-1.43C106.41,65.53,108.84,65.59,111.92,65.59Z" transform="translate(-5.31 -3.91)" style="fill:#8a8a8a"/><path d="M148.9,72.82c.66,3.73,1.31,7.46,1.9,11.14l.48.18a86.36,86.36,0,0,0,4.14-8.06c1.07-2.67,2.67-3.74,5.52-3.32a47.76,47.76,0,0,0,5.8.06c-1.54,2.49-2.9,4.68-4.2,6.87-2.79,4.51-5.58,9.07-8.48,13.51a3.23,3.23,0,0,1-2.25,1.31c-2.08.18-4.15.06-6.4.06-2-7.23-4-14.34-6-21.69C142.62,72.82,145.59,72.82,148.9,72.82Z" transform="translate(-5.31 -3.91)" style="fill:#8a8a8a"/><path d="M311.12,72.7h5a43.86,43.86,0,0,1-1,5.39c-.12.48-1.18.83-1.84.89-3.31.18-3.31.12-3.91,3.38-.23,1.36-.53,2.78-.65,4.15a3.7,3.7,0,0,0,.47,1.48c.42-.36.95-.65,1.13-1.13a10.52,10.52,0,0,0,.48-2.25h2.25c3.67,0,4,.53,3,4.15-1.6,5.45-9.07,8.12-13.81,4.86a5.17,5.17,0,0,1-2.19-5c.24-2.37.71-4.68,1.07-7,.11-.77.23-1.54.35-2.49-1-.12-1.78-.18-2.78-.3.35-2.07.65-4,1-6.1l3.8-.18c.77-1.72,1.06-4.21,2.31-4.86,1.6-.83,4-.18,6.28-.18C311.65,69.26,311.42,70.86,311.12,72.7Z" transform="translate(-5.31 -3.91)" style="fill:#8a8a8a"/><path d="M240.89,75.54c-2,1.84-3.62,3.5-5.34,5.1-3.61-2.13-5.92-2.07-8.06.24-1.71,1.83-2,4.26-.77,5.81,1.49,1.89,3.56,1.83,8.06-.3.54.83,1.13,1.66,1.66,2.49s1,1.6,1.49,2.37c-4.21,3.79-11.27,4.68-16,2.25-4.32-2.31-6-7.59-3.91-12.45,3-7.11,12.39-10.84,19.44-7.7A35,35,0,0,1,240.89,75.54Z" transform="translate(-5.31 -3.91)" style="fill:#8a8a8a"/><path d="M259.14,72.46c-.47,2.79-.94,5.45-1.48,8.24-.77-.06-1.36-.12-1.89-.12-3.09-.18-5,1.07-5.64,4.09s-1.18,6.4-1.83,9.66h-8.66c1.25-7.23,2.49-14.28,3.74-21.51h8.3c-.06.77-.12,1.48-.24,2.49C253.75,73.29,256,71.81,259.14,72.46Z" transform="translate(-5.31 -3.91)" style="fill:#8a8a8a"/><path d="M257.48,94.33c1.25-7.23,2.49-14.28,3.74-21.51h8.71c-1.24,7.23-2.49,14.28-3.73,21.51Z" transform="translate(-5.31 -3.91)" style="fill:#8a8a8a"/><path d="M267.26,63.87c2.61,0,4.15,1.3,4.09,3.32-.06,2.6-2.43,4.44-5.63,4.44-2.55,0-4-1.12-4-3.14C261.63,65.76,263.88,63.87,267.26,63.87Z" transform="translate(-5.31 -3.91)" style="fill:#8a8a8a"/></g><g id="crack_and_code" data-name="crack and code"><path d="M339.78,21.29c1-5.2,2-11.16,3.17-17.25h11.41c-3,17.51-6.09,34.76-9.13,52.27H334.32c-.13-.89-.25-1.91-.38-2.92a12.45,12.45,0,0,0-1.27.38c-2.54,1.14-5.07,2.79-7.74,3.3-9.38,1.9-17-3.68-17.76-13.07-1.14-13.45,7.74-25.88,21.19-25.62C331.91,18.5,335.59,20.28,339.78,21.29Zm-2.54,14.46c0-4.82-3.3-8.11-7.87-8.11-5.58.12-10.65,5.83-10.65,12.3,0,4.69,3,8.12,7.36,8C332.16,47.93,337.37,42.35,337.24,35.75Z" transform="translate(-5.31 -3.91)" style="fill:#393939"/><path d="M169.66,3.91h11.42c-1.65,9.39-3.17,18.4-4.69,27.4.25.13.38.26.63.39,3.81-4.19,7.61-8.38,11.29-12.56h12.31a2.8,2.8,0,0,1,.63,1l-15.6,16.37c1.9,3.55,3.93,7.1,5.83,10.52,2.54-.5,4.06-.88,6.22-1.26.89,2.28,1.9,4.82,2.79,7-6.72,7.23-17.25,5.84-21.44-2.53a43,43,0,0,0-4.57-8q-1.32,7.05-2.66,14.09H160.53C163.57,38.8,166.62,21.42,169.66,3.91Z" transform="translate(-5.31 -3.91)" style="fill:#393939"/><path d="M106.62,21.29l.88-2h11c-2.16,12.56-4.31,24.74-6.47,37.17H101.29c-.13-.76-.38-1.77-.51-2.92-.51.13-.89.26-1.27.38-1.27.64-2.41,1.53-3.68,2.16C84.16,61.25,72.75,53,74,40.19S83.4,18.5,94.82,18.5C98.5,18.5,102.43,20.15,106.62,21.29Zm-2.54,14.46c0-4.82-3.3-8.11-7.87-8.11-5.58,0-10.65,5.83-10.65,12.3,0,4.69,3,8.12,7.36,8.12C99,47.93,104.21,42.35,104.08,35.75Z" transform="translate(-5.31 -3.91)" style="fill:#393939"/><path d="M395,40.58h-29c1.14,8.37,9.13,9.51,20.42,3,1.78,1.9,3.55,3.93,5.33,6-6.72,8-21.06,10.15-29.94,5.33-6.6-3.68-9-11.92-6.09-20.55a24.63,24.63,0,0,1,28.16-15.6C392.8,20.79,397.62,29.67,395,40.58Zm-10.15-7.36c-1.14-4.19-3.93-5.33-7.49-5.58-4.44-.26-7.73,1.9-8.88,5.58Z" transform="translate(-5.31 -3.91)" style="fill:#393939"/><path d="M286,18.25c12.68,0,20,9.89,16.36,22.2s-17.5,19.79-29.81,16.11c-9-2.67-13.32-11.8-10.27-21.82C265.44,25,275.08,18.25,286,18.25Zm6.09,17.89a8.29,8.29,0,0,0-7.87-8c-5.58-.12-11.79,6-11.67,11.55a8.09,8.09,0,0,0,8,7.74C286,47.43,292.08,41.46,292.08,36.14Z" transform="translate(-5.31 -3.91)" style="fill:#393939"/><path d="M152.28,43.24c1.27,2.92,2.41,5.45,3.68,8.24-7.23,5.33-15,7.24-23.46,4.83-9.14-2.54-13.2-11.68-9.9-21.82,5-15.73,25.24-21.57,38.31-10.41-2,2.67-4.19,5.33-6.47,8.12-3.8-2.66-7.74-4.69-12.05-3.17a16.7,16.7,0,0,0-6.34,3.68,8.31,8.31,0,0,0-1.91,10c1.65,3.05,5.71,4.82,9.9,4.06a21.29,21.29,0,0,0,4.06-1.27C149.24,45,150.51,44.25,152.28,43.24Z" transform="translate(-5.31 -3.91)" style="fill:#393939"/><path d="M44.71,24.08C42.3,27,40.27,29.54,38.12,32.2c-3.81-2.79-7.74-4.56-12.18-3.17a15.24,15.24,0,0,0-5.33,2.79c-3.55,2.92-4.57,7.74-2.79,11s6.21,5,10.78,3.68c2.41-.64,4.7-1.91,7.49-3,1.14,2.54,2.28,5.2,3.55,8-7.36,5.46-15.1,7.24-23.47,4.83S4.12,47,5.64,37.66c1.4-8.88,6.72-15,15.1-17.89S37.23,17.23,44.71,24.08Z" transform="translate(-5.31 -3.91)" style="fill:#393939"/><path d="M252.88,43.24c1.4,2.92,2.54,5.45,3.81,8.24-7.49,5.46-15.35,7.36-24,4.7-8.88-2.79-12.43-11-9.64-21.19,4.31-15.85,25.62-22.2,38.44-10.91-2,2.67-4.06,5.33-6.35,8.12-3.8-2.79-7.61-4.44-12.17-3.3a12.19,12.19,0,0,0-9.14,9.26c-.63,3.56,1.65,7,5.58,8.25C244.25,48.06,248.31,45.9,252.88,43.24Z" transform="translate(-5.31 -3.91)" style="fill:#393939"/><path d="M51.05,19.26c1.27-.12,2-.25,2.8-.38h7.86c.13,1.27.38,2.54.63,4.06,3.68-3.42,7.49-5.83,12.82-4.18-.64,3.55-1.14,6.85-1.78,10.53-1.39,0-2.66-.13-3.8-.13-5.46,0-9,2.66-10.15,8.12-1.27,6.21-2.29,12.43-3.43,19H44.59C46.74,44,48.9,31.82,51.05,19.26Z" transform="translate(-5.31 -3.91)" style="fill:#393939"/></g></svg>