<svg id="Layer_1" data-name="Layer 1" xmlns="http://www.w3.org/2000/svg" viewBox="0 0 297.33 255.91"><g id="Layer_1-2" data-name="Layer 1"><g id="EjBSXR.tif"><path d="M298.36,139.9c-16.7-.2-32.1-.4-47.4-.5-6.4-22.6-22.1-34.7-46-35.8-23.4-1-40.4,10.8-49.1,34.6a9.23,9.23,0,0,1-1.4-2c-4.1-21.9-27-34.5-49.2-33.6-15.5.7-29.1,6.1-38.6,19.1-1.7,2.3-3.7,5-4,7.7-1,7.8-5.6,8.5-12.2,8.2-12.3-.6-24.6-.4-38-.5,7.7-16.6,16.8-30.9,28.7-43,11.9-11.9,25-22.7,37.6-34-11.6-8.6-26.9-15.8-32.7-34.4l32,17.1c.5-.6,1-1.1,1.5-1.7C73,30.6,65.16,20.7,62.06,6.7c14.3,10.9,26.5,22.1,43.2,28.2-4.5-9.4-8.4-17.7-13-27.5,2.6.6,3.3.6,3.6.9,16.5,19.1,37.9,26.2,62.4,29.6,61.2,8.5,108.9,37.8,137,94.7C296.26,134.6,297.06,136.7,298.36,139.9Z" transform="translate(-6.09 -6.7)" style="fill:#566473;"/><path d="M33.86,148.8c2.5,0,5.1-.1,7.6.1,7.7.6,14.5-1,21.7-4.4,18.9-8.8,37.8-7.2,56,3.2a14.79,14.79,0,0,1,2.1,1.3c12.8,12.3,28.5,14.7,45.3,13a16.48,16.48,0,0,0,6.9-2.2c4.2-2.4,8.1-5.2,12.1-7.8,21.1-14.1,42.8-15.3,65.4-4a29.94,29.94,0,0,0,11.8,3.1c10.5.5,21,.5,31.4.4,4.2,0,8.1,1,9,5,.8,3.3-.5,7-.8,10.6a.66.66,0,0,1-.4.5c-9.5,6.1-8.5,16.2-10,25.4-3.4,19-9,37.1-23.2,51.2-18.2,18.1-47.1,23.5-71.2,13.3-23.2-9.7-37.4-31.7-37.3-58.2.1-4.1-1-7.9-5.2-7.7-4.9.2-6.2,4.4-6.4,9.1-.9,34.7-27.3,60.2-62,60-28.3-.2-50.8-14.7-60.6-41.4-4.7-13-6.6-27.1-9.2-40.8-.7-3.8-.9-7.1-4.4-9.7a19.06,19.06,0,0,1-5.3-6.9c-3.2-6.8,1.1-13.4,8.5-13.4Zm5.9,50.7a48.1,48.1,0,1,0,48.8-47.4C61.46,151.7,40.16,172.5,39.76,199.5Zm133.4,1.4a48.1,48.1,0,0,0,96.2,1.3c.3-26.8-20.9-48.3-47.9-48.6A47.55,47.55,0,0,0,173.16,200.9Z" transform="translate(-6.09 -6.7)" style="fill:#566473;"/><path d="M102.46,180.7c-6.7,14.2,1.1,24.9,16.3,24.1a18.75,18.75,0,0,1-22.1,15.1,19.82,19.82,0,0,1-16.4-22.4C82.06,186.1,91.06,179.2,102.46,180.7Z" transform="translate(-6.09 -6.7)" style="fill:#566473;"/><path d="M190.16,205.7c16.9.9,22.9-11.4,16.7-23.8,11.4-1.2,20.9,6.1,22,17.1a20,20,0,0,1-17.5,22.2C201,222.6,191.56,215.7,190.16,205.7Z" transform="translate(-6.09 -6.7)" style="fill:#566473;"/></g></g></svg>