<svg id="Layer_1" data-name="Layer 1" xmlns="http://www.w3.org/2000/svg" viewBox="0 0 469.24 454.16"><path d="M67.46,250.32h1.06c6.35-8.4,15.35-18.78,22.77-27.18l75.2-82.53h56.14L123.6,239,236.4,379.79H179.73L91.29,265.14,67.46,289.85v89.94H21.38V28.92H67.46Z" transform="translate(-21.38 -28.92)" style="fill:#576574"/><path d="M490.62,140.61c-1.06,17.29-2.12,36.57-2.12,65.72V345.2c0,54.86-11.65,88.46-36.54,109.22-24.89,21.74-60.91,28.66-93.21,28.66-30.72,0-64.62-6.92-85.27-19.77l11.65-33.11c16.95,9.89,43.43,18.78,75.2,18.78C408,449,443,425.75,443,365.46V338.78H441.9c-14.3,22.24-41.84,40-81.57,40-63.55,0-109.1-50.41-109.1-116.63,0-81.05,56.67-127,115.46-127,44.49,0,68.85,21.75,80,41.51h1.06l2.12-36.07ZM442.43,235c0-7.42-.53-13.84-2.65-19.77-8.48-25.2-31.25-46-65.15-46-44.48,0-76.26,35.09-76.26,90.44,0,46.94,25.42,86,75.74,86,28.59,0,54.55-16.81,64.61-44.48A70.93,70.93,0,0,0,442.43,278Z" transform="translate(-21.38 -28.92)" style="fill:#576574"/></svg>