<?xml version="1.0" encoding="utf-8"?>
<!-- Generator: Adobe Illustrator 24.3.0, SVG Export Plug-In . SVG Version: 6.00 Build 0)  -->
<svg version="1.1" id="Layer_1" xmlns="http://www.w3.org/2000/svg" xmlns:xlink="http://www.w3.org/1999/xlink" x="0px" y="0px"
	 viewBox="0 0 24 24" style="enable-background:new 0 0 24 24;" xml:space="preserve">
<style type="text/css">
	.st0{fill:#999999;}
</style>
<path class="st0" d="M1,21h4V9H1V21z M23,10c0-1.1-0.9-2-2-2h-6.3l0.9-4.6l0-0.3c0-0.4-0.2-0.8-0.4-1.1l-1.1-1L7.6,7.6
	C7.2,7.9,7,8.4,7,9v10c0,1.1,0.9,2,2,2h9c0.8,0,1.5-0.5,1.8-1.2l3-7.1C23,12.5,23,12.3,23,12V10z"/>
</svg>
