<?xml version="1.0" encoding="utf-8"?>
<!-- Generator: Adobe Illustrator 24.3.0, SVG Export Plug-In . SVG Version: 6.00 Build 0)  -->
<svg version="1.1" id="Layer_1" xmlns="http://www.w3.org/2000/svg" xmlns:xlink="http://www.w3.org/1999/xlink" x="0px" y="0px"
	 viewBox="0 0 512 512" style="enable-background:new 0 0 512 512;" xml:space="preserve">
<style type="text/css">
	.st0{fill:none;stroke:#4D5966;stroke-width:56;stroke-linecap:round;stroke-linejoin:round;}
	.st1{fill:#4C5966;stroke:#4D5966;stroke-miterlimit:10;}
</style>
<path class="st0" d="M94.8,111.8c-35,39.1-54.5,89.5-55.1,141.9C38.4,373.5,136.2,472,256,472.2c119.6,0.2,216.2-96.7,216.2-216.2
	c0-117.7-94.1-213.6-211.2-216.2c-2.7-0.1-5,2-5.1,4.8c0,0.1,0,0.1,0,0.2v94.2"/>
<path class="st1" d="M270.6,321.1L163.8,168.3c-3.5-5-2.3-11.8,2.7-15.3c3.8-2.6,8.8-2.6,12.6,0l152.8,106.9
	c19.7,14.2,24.2,41.7,10,61.4c-13.9,19.3-40.7,24-60.4,10.7C277.3,328.9,273.6,325.3,270.6,321.1z"/>
</svg>
