<?xml version="1.0" encoding="utf-8"?>
<!-- Generator: Adobe Illustrator 24.3.0, SVG Export Plug-In . SVG Version: 6.00 Build 0)  -->
<svg version="1.1" id="Layer_1" xmlns="http://www.w3.org/2000/svg" xmlns:xlink="http://www.w3.org/1999/xlink" x="0px" y="0px"
	 viewBox="0 0 512 512" style="enable-background:new 0 0 512 512;" xml:space="preserve">
<style type="text/css">
	.st0{fill:#575867;}
</style>
<path class="st0" d="M258.9,48C141.9,46.4,46.4,141.9,48,258.9c1.6,112.2,92.9,203.5,205.1,205.1c117,1.6,212.5-93.9,210.9-210.9
	C462.4,140.9,371.1,49.6,258.9,48z M385.3,375.2c-1.5,1.6-4,1.7-5.6,0.2c-0.2-0.2-0.3-0.4-0.5-0.5c-8.9-11.7-19.9-21.7-32.4-29.6
	C321.4,329,289.1,320,256,320s-65.4,9-90.8,25.3c-12.4,7.9-23.4,17.9-32.3,29.6c-1.3,1.8-3.8,2.1-5.6,0.8c-0.2-0.1-0.4-0.3-0.5-0.5
	C97.3,343.6,80.7,302.2,80,259c-1.6-97.3,78.2-178.8,175.6-179S432,158.8,432,256C432,300.2,415.4,342.8,385.3,375.2z"/>
<path class="st0" d="M256,144c-19.7,0-37.6,7.4-50.2,20.8s-19,32-17.6,51.9C191.1,256,221.5,288,256,288s64.8-32,67.8-71.2
	c1.5-19.7-4.8-38.1-17.7-51.8C293.4,151.4,275.6,144,256,144z"/>
</svg>
