<?xml version="1.0" encoding="utf-8"?>
<!-- Generator: Adobe Illustrator 24.3.0, SVG Export Plug-In . SVG Version: 6.00 Build 0)  -->
<svg version="1.1" id="Layer_1" xmlns="http://www.w3.org/2000/svg" xmlns:xlink="http://www.w3.org/1999/xlink" x="0px" y="0px"
	 viewBox="0 0 512 512" style="enable-background:new 0 0 512 512;" xml:space="preserve">
<style type="text/css">
	.st0{fill:none;stroke:#575867;stroke-width:32;stroke-linecap:round;stroke-linejoin:round;}
</style>
<path class="st0" d="M447.5,363.4c-28.7-35-48.9-52.9-48.9-149.5c0-88.6-45.2-120-82.4-135.4c-4.9-2-9.6-6.7-11.2-11.8
	C298.6,44.5,280.3,25,256,25s-42.6,19.6-49.1,41.8c-1.6,5.1-6.1,9.7-11,11.7c-37.3,15.4-82.4,46.7-82.4,135.4
	c0,96.6-20.3,114.4-49,149.6C52.7,378,63,399.9,83.8,399.9h344.5C449,399.8,459.3,377.9,447.5,363.4z"/>
<path class="st0" d="M327.4,399.8v17.8c0,39.5-31.9,71.4-71.4,71.4s-71.4-31.9-71.4-71.4v-17.8"/>
</svg>
